<svg width="250" height="23" viewBox="0 0 250 23" fill="none" xmlns="http://www.w3.org/2000/svg">
<path d="M12.2 3.008V7.232H5.528V9.584H10.328V13.592H5.528V20H0.2V3.008H12.2ZM27.1087 13.112C27.1087 13.48 27.0847 13.832 27.0367 14.168H18.4687C18.5487 15.336 19.0367 15.92 19.9327 15.92C20.5087 15.92 20.9247 15.656 21.1807 15.128H26.8207C26.6287 16.088 26.2207 16.952 25.5967 17.72C24.9887 18.472 24.2127 19.072 23.2687 19.52C22.3407 19.952 21.3167 20.168 20.1967 20.168C18.8527 20.168 17.6527 19.888 16.5967 19.328C15.5567 18.768 14.7407 17.968 14.1487 16.928C13.5727 15.872 13.2847 14.64 13.2847 13.232C13.2847 11.824 13.5727 10.6 14.1487 9.56C14.7407 8.504 15.5567 7.696 16.5967 7.136C17.6527 6.576 18.8527 6.296 20.1967 6.296C21.5407 6.296 22.7327 6.576 23.7727 7.136C24.8287 7.68 25.6447 8.464 26.2207 9.488C26.8127 10.512 27.1087 11.72 27.1087 13.112ZM21.7087 11.84C21.7087 11.392 21.5647 11.056 21.2767 10.832C20.9887 10.592 20.6287 10.472 20.1967 10.472C19.2527 10.472 18.7007 10.928 18.5407 11.84H21.7087ZM34.1218 8.96C34.6658 8.176 35.3298 7.552 36.1138 7.088C36.8978 6.608 37.7138 6.368 38.5618 6.368V12.056H37.0498C36.0418 12.056 35.2978 12.232 34.8178 12.584C34.3538 12.936 34.1218 13.56 34.1218 14.456V20H28.7938V6.464H34.1218V8.96ZM49.4769 6.368C51.0289 6.368 52.2369 6.888 53.1009 7.928C53.9809 8.968 54.4209 10.376 54.4209 12.152V20H49.1169V12.824C49.1169 12.184 48.9409 11.68 48.5889 11.312C48.2529 10.928 47.7969 10.736 47.2209 10.736C46.6289 10.736 46.1649 10.928 45.8289 11.312C45.4929 11.68 45.3249 12.184 45.3249 12.824V20H39.9969V6.464H45.3249V8.528C45.7409 7.888 46.2929 7.368 46.9809 6.968C47.6849 6.568 48.5169 6.368 49.4769 6.368ZM56.0113 13.232C56.0113 11.808 56.2513 10.576 56.7313 9.536C57.2273 8.48 57.8993 7.68 58.7473 7.136C59.5953 6.576 60.5473 6.296 61.6033 6.296C62.4833 6.296 63.2433 6.48 63.8833 6.848C64.5233 7.2 65.0113 7.688 65.3473 8.312V6.464H70.6513V20H65.3473V18.152C65.0113 18.776 64.5233 19.272 63.8833 19.64C63.2433 19.992 62.4833 20.168 61.6033 20.168C60.5473 20.168 59.5953 19.896 58.7473 19.352C57.8993 18.792 57.2273 17.992 56.7313 16.952C56.2513 15.896 56.0113 14.656 56.0113 13.232ZM65.3473 13.232C65.3473 12.512 65.1633 11.952 64.7953 11.552C64.4273 11.152 63.9553 10.952 63.3793 10.952C62.8033 10.952 62.3313 11.152 61.9633 11.552C61.5953 11.952 61.4113 12.512 61.4113 13.232C61.4113 13.952 61.5953 14.512 61.9633 14.912C62.3313 15.312 62.8033 15.512 63.3793 15.512C63.9553 15.512 64.4273 15.312 64.7953 14.912C65.1633 14.512 65.3473 13.952 65.3473 13.232ZM82.5238 6.368C84.0758 6.368 85.2838 6.888 86.1478 7.928C87.0278 8.968 87.4678 10.376 87.4678 12.152V20H82.1638V12.824C82.1638 12.184 81.9878 11.68 81.6358 11.312C81.2998 10.928 80.8438 10.736 80.2678 10.736C79.6758 10.736 79.2118 10.928 78.8758 11.312C78.5398 11.68 78.3718 12.184 78.3718 12.824V20H73.0438V6.464H78.3718V8.528C78.7878 7.888 79.3398 7.368 80.0278 6.968C80.7318 6.568 81.5638 6.368 82.5238 6.368ZM89.0581 13.232C89.0581 11.808 89.2981 10.576 89.7781 9.536C90.2741 8.48 90.9461 7.68 91.7941 7.136C92.6421 6.576 93.5941 6.296 94.6501 6.296C95.5301 6.296 96.2821 6.48 96.9061 6.848C97.5461 7.2 98.0341 7.688 98.3701 8.312V2.24H103.698V20H98.3701V18.152C98.0341 18.776 97.5461 19.272 96.9061 19.64C96.2821 19.992 95.5301 20.168 94.6501 20.168C93.5941 20.168 92.6421 19.896 91.7941 19.352C90.9461 18.792 90.2741 17.992 89.7781 16.952C89.2981 15.896 89.0581 14.656 89.0581 13.232ZM98.3941 13.232C98.3941 12.512 98.2101 11.952 97.8421 11.552C97.4741 11.152 97.0021 10.952 96.4261 10.952C95.8501 10.952 95.3781 11.152 95.0101 11.552C94.6421 11.952 94.4581 12.512 94.4581 13.232C94.4581 13.952 94.6421 14.512 95.0101 14.912C95.3781 15.312 95.8501 15.512 96.4261 15.512C97.0021 15.512 97.4741 15.312 97.8421 14.912C98.2101 14.512 98.3941 13.952 98.3941 13.232ZM112.523 20.168C111.163 20.168 109.939 19.888 108.851 19.328C107.763 18.768 106.907 17.968 106.283 16.928C105.675 15.872 105.371 14.64 105.371 13.232C105.371 11.824 105.675 10.6 106.283 9.56C106.907 8.504 107.763 7.696 108.851 7.136C109.939 6.576 111.163 6.296 112.523 6.296C113.883 6.296 115.107 6.576 116.195 7.136C117.283 7.696 118.131 8.504 118.739 9.56C119.363 10.6 119.675 11.824 119.675 13.232C119.675 14.64 119.363 15.872 118.739 16.928C118.131 17.968 117.283 18.768 116.195 19.328C115.107 19.888 113.883 20.168 112.523 20.168ZM112.523 15.56C113.019 15.56 113.435 15.368 113.771 14.984C114.107 14.584 114.275 14 114.275 13.232C114.275 12.464 114.107 11.888 113.771 11.504C113.435 11.104 113.019 10.904 112.523 10.904C112.027 10.904 111.611 11.104 111.275 11.504C110.939 11.888 110.771 12.464 110.771 13.232C110.771 14 110.931 14.584 111.251 14.984C111.587 15.368 112.011 15.56 112.523 15.56ZM136.611 22.76L134.979 20.072C134.611 20.136 134.187 20.168 133.707 20.168C132.107 20.168 130.635 19.792 129.291 19.04C127.963 18.288 126.907 17.248 126.123 15.92C125.339 14.592 124.947 13.096 124.947 11.432C124.947 9.768 125.339 8.272 126.123 6.944C126.907 5.616 127.963 4.584 129.291 3.848C130.635 3.096 132.107 2.72 133.707 2.72C135.307 2.72 136.771 3.096 138.099 3.848C139.427 4.584 140.475 5.616 141.243 6.944C142.027 8.272 142.419 9.768 142.419 11.432C142.419 12.792 142.155 14.048 141.627 15.2C141.099 16.336 140.371 17.304 139.443 18.104L142.899 22.76H136.611ZM130.371 11.432C130.371 12.584 130.659 13.504 131.235 14.192C131.811 14.864 132.635 15.2 133.707 15.2C134.763 15.2 135.579 14.864 136.155 14.192C136.731 13.504 137.019 12.584 137.019 11.432C137.019 10.264 136.731 9.344 136.155 8.672C135.579 7.984 134.763 7.64 133.707 7.64C132.635 7.64 131.811 7.984 131.235 8.672C130.659 9.344 130.371 10.264 130.371 11.432ZM158.669 6.464V20H153.341V17.936C152.925 18.576 152.365 19.096 151.661 19.496C150.973 19.896 150.149 20.096 149.189 20.096C147.637 20.096 146.421 19.576 145.541 18.536C144.677 17.496 144.245 16.088 144.245 14.312V6.464H149.549V13.64C149.549 14.28 149.717 14.792 150.053 15.176C150.405 15.544 150.869 15.728 151.445 15.728C152.037 15.728 152.501 15.544 152.837 15.176C153.173 14.792 153.341 14.28 153.341 13.64V6.464H158.669ZM163.763 5.384C162.835 5.384 162.091 5.136 161.531 4.64C160.971 4.144 160.691 3.52 160.691 2.768C160.691 2 160.971 1.368 161.531 0.871999C162.091 0.359999 162.835 0.103999 163.763 0.103999C164.675 0.103999 165.411 0.359999 165.971 0.871999C166.531 1.368 166.811 2 166.811 2.768C166.811 3.52 166.531 4.144 165.971 4.64C165.411 5.136 164.675 5.384 163.763 5.384ZM166.403 6.464V20H161.075V6.464H166.403ZM178.289 6.368C179.841 6.368 181.049 6.888 181.913 7.928C182.793 8.968 183.233 10.376 183.233 12.152V20H177.929V12.824C177.929 12.184 177.753 11.68 177.401 11.312C177.065 10.928 176.609 10.736 176.033 10.736C175.441 10.736 174.977 10.928 174.641 11.312C174.305 11.68 174.137 12.184 174.137 12.824V20H168.809V6.464H174.137V8.528C174.553 7.888 175.105 7.368 175.793 6.968C176.497 6.568 177.329 6.368 178.289 6.368ZM193.968 15.464V20H191.952C188.24 20 186.384 18.152 186.384 14.456V10.904H184.704V6.464H186.384V3.2H191.712V6.464H193.92V10.904H191.712V14.552C191.712 14.872 191.784 15.104 191.928 15.248C192.088 15.392 192.344 15.464 192.696 15.464H193.968ZM209.101 13.112C209.101 13.48 209.077 13.832 209.029 14.168H200.461C200.541 15.336 201.029 15.92 201.925 15.92C202.501 15.92 202.917 15.656 203.173 15.128H208.813C208.621 16.088 208.213 16.952 207.589 17.72C206.981 18.472 206.205 19.072 205.261 19.52C204.333 19.952 203.309 20.168 202.189 20.168C200.845 20.168 199.645 19.888 198.589 19.328C197.549 18.768 196.733 17.968 196.141 16.928C195.565 15.872 195.277 14.64 195.277 13.232C195.277 11.824 195.565 10.6 196.141 9.56C196.733 8.504 197.549 7.696 198.589 7.136C199.645 6.576 200.845 6.296 202.189 6.296C203.533 6.296 204.725 6.576 205.765 7.136C206.821 7.68 207.637 8.464 208.213 9.488C208.805 10.512 209.101 11.72 209.101 13.112ZM203.701 11.84C203.701 11.392 203.557 11.056 203.269 10.832C202.981 10.592 202.621 10.472 202.189 10.472C201.245 10.472 200.693 10.928 200.533 11.84H203.701ZM216.114 8.96C216.658 8.176 217.322 7.552 218.106 7.088C218.89 6.608 219.706 6.368 220.554 6.368V12.056H219.042C218.034 12.056 217.29 12.232 216.81 12.584C216.346 12.936 216.114 13.56 216.114 14.456V20H210.786V6.464H216.114V8.96ZM228.421 20.168C227.061 20.168 225.837 19.888 224.749 19.328C223.661 18.768 222.805 17.968 222.181 16.928C221.573 15.872 221.269 14.64 221.269 13.232C221.269 11.824 221.573 10.6 222.181 9.56C222.805 8.504 223.661 7.696 224.749 7.136C225.837 6.576 227.061 6.296 228.421 6.296C229.781 6.296 231.005 6.576 232.093 7.136C233.181 7.696 234.029 8.504 234.637 9.56C235.261 10.6 235.573 11.824 235.573 13.232C235.573 14.64 235.261 15.872 234.637 16.928C234.029 17.968 233.181 18.768 232.093 19.328C231.005 19.888 229.781 20.168 228.421 20.168ZM228.421 15.56C228.917 15.56 229.333 15.368 229.669 14.984C230.005 14.584 230.173 14 230.173 13.232C230.173 12.464 230.005 11.888 229.669 11.504C229.333 11.104 228.917 10.904 228.421 10.904C227.925 10.904 227.509 11.104 227.173 11.504C226.837 11.888 226.669 12.464 226.669 13.232C226.669 14 226.829 14.584 227.149 14.984C227.485 15.368 227.909 15.56 228.421 15.56ZM243.271 20.168C241.991 20.168 240.855 19.96 239.863 19.544C238.887 19.128 238.111 18.552 237.535 17.816C236.959 17.08 236.631 16.248 236.551 15.32H241.663C241.727 15.72 241.895 16.016 242.167 16.208C242.455 16.4 242.815 16.496 243.247 16.496C243.519 16.496 243.735 16.44 243.895 16.328C244.055 16.2 244.135 16.048 244.135 15.872C244.135 15.568 243.967 15.352 243.631 15.224C243.295 15.096 242.727 14.952 241.927 14.792C240.951 14.6 240.143 14.392 239.503 14.168C238.879 13.944 238.327 13.56 237.847 13.016C237.383 12.472 237.151 11.72 237.151 10.76C237.151 9.928 237.367 9.176 237.799 8.504C238.247 7.816 238.903 7.28 239.767 6.896C240.631 6.496 241.679 6.296 242.911 6.296C244.735 6.296 246.159 6.744 247.183 7.64C248.223 8.536 248.847 9.704 249.055 11.144H244.327C244.247 10.776 244.079 10.496 243.823 10.304C243.567 10.096 243.223 9.992 242.791 9.992C242.519 9.992 242.311 10.048 242.167 10.16C242.023 10.256 241.951 10.408 241.951 10.616C241.951 10.888 242.119 11.096 242.455 11.24C242.791 11.368 243.327 11.504 244.063 11.648C245.039 11.84 245.863 12.056 246.535 12.296C247.207 12.536 247.791 12.952 248.287 13.544C248.783 14.12 249.031 14.92 249.031 15.944C249.031 16.744 248.799 17.464 248.335 18.104C247.871 18.744 247.199 19.248 246.319 19.616C245.455 19.984 244.439 20.168 243.271 20.168Z" fill="#310A90"/>
</svg>
